<?xml version="1.0" encoding="utf-8"?>
<!-- Generator: Adobe Illustrator 18.1.1, SVG Export Plug-In . SVG Version: 6.00 Build 0)  -->
<svg version="1.1" id="Layer_1" xmlns="http://www.w3.org/2000/svg" xmlns:xlink="http://www.w3.org/1999/xlink" x="0px" y="0px"
	 width="400px" height="400px" viewBox="0 0 400 400" enable-background="new 0 0 400 400" xml:space="preserve">
<g>
	<g>
		<path fill="#A21B00" d="M57.3,232.5l124.6-26.1c11-2.3,24.6-2.3,35.6,0L342,232.5c11,2.3,17.7,6.5,17.7,11.1v52.2
			c0,4.6-6.8,8.8-17.7,11.1L217.5,333c-11,2.3-24.6,2.3-35.6,0L57.3,307c-11-2.3-17.7-6.5-17.7-11.1v-52.2
			C39.6,239,46.3,234.8,57.3,232.5z"/>
		<path fill="#D62C00" d="M57.3,208.4l124.6-26.1c11-2.3,24.6-2.3,35.6,0L342,208.4c11,2.3,17.7,6.5,17.7,11.1v52.2
			c0,4.6-6.8,8.8-17.7,11.1l-124.6,26.1c-11,2.3-24.6,2.3-35.6,0L57.3,282.9c-11-2.3-17.7-6.5-17.7-11.1v-52.2
			C39.6,214.9,46.3,210.7,57.3,208.4z"/>
	</g>
	<path opacity="0.15" d="M39.6,240c0,0,0.3,0.8,2,3.5s158.1,67.4,158.1,67.4s9.6-0.2,17.8-1.9S342,282.8,342,282.8
		s10.4-1.8,13.7-5.3c3.3-3.4,3.3-2.8,3.3-2.8l0.7-34.8H39.6z"/>
	<g>
		<path fill="#A21B00" d="M57.3,175.4l124.6-26.1c11-2.3,24.6-2.3,35.6,0L342,175.4c11,2.3,17.7,6.5,17.7,11.1v52.2
			c0,4.6-6.8,8.8-17.7,11.1l-124.6,26.1c-11,2.3-24.6,2.3-35.6,0L57.3,249.8c-11-2.3-17.7-6.5-17.7-11.1v-52.2
			C39.6,181.9,46.3,177.7,57.3,175.4z"/>
		<path fill="#D62C00" d="M57.3,151.3l124.6-26.1c11-2.3,24.6-2.3,35.6,0L342,151.3c11,2.3,17.7,6.5,17.7,11.1v52.2
			c0,4.6-6.8,8.8-17.7,11.1l-124.6,26.1c-11,2.3-24.6,2.3-35.6,0L57.3,225.7c-11-2.3-17.7-6.5-17.7-11.1v-52.2
			C39.6,157.8,46.3,153.6,57.3,151.3z"/>
	</g>
	<path opacity="0.15" d="M39.6,182c0,0,0.3,1.2,2,4c1.6,2.8,158.1,67.6,158.1,67.6s9.6-0.1,17.8-1.8c8.2-1.7,124.6-26.1,124.6-26.1
		s10.4-1.8,13.7-5.2c3.3-3.4,3.3-3.3,3.3-3.3l0.7-35.3H39.6z"/>
	<g>
		<path fill="#A21B00" d="M57.3,118.3l124.6-26.1c11-2.3,24.6-2.3,35.6,0L342,118.3c11,2.3,17.7,6.5,17.7,11.1v52.2
			c0,4.6-6.8,8.8-17.7,11.1l-124.6,26.1c-11,2.3-24.6,2.3-35.6,0L57.3,192.7c-11-2.3-17.7-6.5-17.7-11.1v-52.2
			C39.6,124.8,46.3,120.6,57.3,118.3z"/>
		<path fill="#D62C00" d="M57.3,94.2l124.6-26.1c11-2.3,24.6-2.3,35.6,0L342,94.2c11,2.3,17.7,6.5,17.7,11.1v52.2
			c0,4.6-6.8,8.8-17.7,11.1l-124.6,26.1c-11,2.3-24.6,2.3-35.6,0L57.3,168.6c-11-2.3-17.7-6.5-17.7-11.1v-52.2
			C39.6,100.7,46.3,96.5,57.3,94.2z"/>
	</g>
</g>
</svg>
